<svg id="visual" viewBox="0 0 900 600" width="900" height="600" xmlns="http://www.w3.org/2000/svg" xmlns:xlink="http://www.w3.org/1999/xlink" version="1.1"><rect x="0" y="0" width="900" height="600" fill="#FFFFFF"></rect><defs><linearGradient id="grad1_0" x1="33.3%" y1="0%" x2="100%" y2="100%"><stop offset="20%" stop-color="#fbae3c" stop-opacity="1"></stop><stop offset="80%" stop-color="#fbae3c" stop-opacity="1"></stop></linearGradient></defs><defs><linearGradient id="grad1_1" x1="33.3%" y1="0%" x2="100%" y2="100%"><stop offset="20%" stop-color="#fbae3c" stop-opacity="1"></stop><stop offset="80%" stop-color="#ffd69f" stop-opacity="1"></stop></linearGradient></defs><defs><linearGradient id="grad1_2" x1="33.3%" y1="0%" x2="100%" y2="100%"><stop offset="20%" stop-color="#ffffff" stop-opacity="1"></stop><stop offset="80%" stop-color="#ffd69f" stop-opacity="1"></stop></linearGradient></defs><defs><linearGradient id="grad2_0" x1="0%" y1="0%" x2="66.7%" y2="100%"><stop offset="20%" stop-color="#fbae3c" stop-opacity="1"></stop><stop offset="80%" stop-color="#fbae3c" stop-opacity="1"></stop></linearGradient></defs><defs><linearGradient id="grad2_1" x1="0%" y1="0%" x2="66.7%" y2="100%"><stop offset="20%" stop-color="#ffd69f" stop-opacity="1"></stop><stop offset="80%" stop-color="#fbae3c" stop-opacity="1"></stop></linearGradient></defs><defs><linearGradient id="grad2_2" x1="0%" y1="0%" x2="66.7%" y2="100%"><stop offset="20%" stop-color="#ffd69f" stop-opacity="1"></stop><stop offset="80%" stop-color="#ffffff" stop-opacity="1"></stop></linearGradient></defs><g transform="translate(900, 0)"><path d="M0 486.7C-51.7 483 -103.4 479.2 -150.4 462.9C-197.4 446.6 -239.8 417.8 -281.5 387.5C-323.3 357.3 -364.4 325.7 -392.4 285.1C-420.4 244.5 -435.3 194.9 -448.9 145.9C-462.5 96.8 -474.6 48.4 -486.7 0L0 0Z" fill="#ffeacf"></path><path d="M0 324.5C-34.5 322 -68.9 319.5 -100.3 308.6C-131.6 297.7 -159.9 278.5 -187.7 258.3C-215.5 238.2 -242.9 217.1 -261.6 190.1C-280.3 163 -290.2 129.9 -299.3 97.2C-308.3 64.6 -316.4 32.3 -324.5 0L0 0Z" fill="#ffc270"></path><path d="M0 162.2C-17.2 161 -34.5 159.7 -50.1 154.3C-65.8 148.9 -79.9 139.3 -93.8 129.2C-107.8 119.1 -121.5 108.6 -130.8 95C-140.1 81.5 -145.1 65 -149.6 48.6C-154.2 32.3 -158.2 16.1 -162.2 0L0 0Z" fill="#fbae3c"></path></g><g transform="translate(0, 600)"><path d="M0 -486.7C50.7 -482.1 101.5 -477.4 150.4 -462.9C199.4 -448.5 246.5 -424.3 283.9 -390.8C321.3 -357.2 348.9 -314.2 374.6 -272.1C400.2 -230.1 423.9 -188.9 442.2 -143.7C460.6 -98.5 473.7 -49.2 486.7 0L0 0Z" fill="#ffeacf"></path><path d="M0 -324.5C33.8 -321.4 67.6 -318.2 100.3 -308.6C132.9 -299 164.3 -282.9 189.3 -260.5C214.2 -238.1 232.6 -209.5 249.7 -181.4C266.8 -153.4 282.6 -125.9 294.8 -95.8C307.1 -65.7 315.8 -32.8 324.5 0L0 0Z" fill="#ffc270"></path><path d="M0 -162.2C16.9 -160.7 33.8 -159.1 50.1 -154.3C66.5 -149.5 82.2 -141.4 94.6 -130.3C107.1 -119.1 116.3 -104.7 124.9 -90.7C133.4 -76.7 141.3 -63 147.4 -47.9C153.5 -32.8 157.9 -16.4 162.2 0L0 0Z" fill="#fbae3c"></path></g></svg>