<?xml version="1.0" encoding="UTF-8"?>
<svg xmlns="http://www.w3.org/2000/svg" xmlns:xlink="http://www.w3.org/1999/xlink" style="fill:rgb(82.348633%,87.449646%,39.219666%);" width="375pt" height="374.999991pt" viewBox="0 0 375 374.999991" version="1.2">
<g id="surface1">
<path style=" stroke:none;fill-rule:evenodd;fill-opacity:1;" d="M 294.042969 220.160156 C 291.769531 216.363281 289.785156 212.378906 287.3125 208.726562 C 286.054688 206.863281 284.179688 205.285156 282.289062 204.023438 C 278.097656 201.226562 273.761719 198.648438 269.414062 196.105469 C 262.289062 191.945312 254.574219 191.230469 246.636719 192.648438 C 239.59375 193.890625 234.65625 189.65625 229.21875 186.480469 C 224.472656 183.710938 219.679688 180.921875 214.644531 178.738281 C 212.964844 178.007812 210.472656 179.09375 208.359375 179.414062 C 207.191406 179.59375 206.054688 180.097656 204.898438 180.128906 C 196.527344 180.363281 188.515625 182.175781 180.800781 185.429688 C 180.171875 185.699219 179.363281 185.539062 178.640625 185.582031 C 178.660156 184.757812 178.414062 183.789062 178.757812 183.128906 C 179.417969 181.835938 180.40625 180.703125 181.714844 178.867188 C 179.78125 178.535156 178.480469 178.117188 177.175781 178.117188 C 167.152344 178.136719 157.878906 181.214844 150.066406 187.175781 C 143.253906 192.371094 140.496094 202.140625 144.394531 212 C 146.773438 218.007812 151.019531 222.609375 156.5 225.902344 L 171.566406 233.71875 C 172.617188 234.625 173.644531 235.445312 174.777344 236.074219 C 181.988281 240.125 189.160156 244.339844 196.734375 247.613281 C 200.757812 249.34375 205.609375 249.082031 210.027344 250.011719 C 215.535156 251.160156 221 252.574219 226.457031 253.929688 C 227.261719 254.136719 227.984375 254.660156 228.613281 255.621094 C 225.597656 255.464844 222.574219 255.3125 219.550781 255.160156 C 219.53125 255.539062 219.503906 255.917969 219.476562 256.296875 C 228.332031 261.445312 238.105469 261.207031 247.945312 260.601562 C 248.050781 260.875 248.152344 261.148438 248.253906 261.425781 C 247.121094 261.917969 245.96875 262.882812 244.867188 262.835938 C 238.867188 262.59375 232.773438 262.667969 226.925781 261.519531 C 222.167969 260.59375 217.71875 258.082031 213.117188 256.324219 C 211.21875 255.59375 209.261719 255.011719 207.335938 254.363281 C 207.148438 254.644531 206.957031 254.929688 206.78125 255.21875 C 209.394531 258.222656 212.179688 261.09375 214.59375 264.257812 C 219.042969 270.101562 223.429688 276 227.511719 282.097656 C 228.9375 284.242188 229.367188 287.054688 230.253906 289.558594 C 229.890625 289.730469 229.53125 289.902344 229.167969 290.066406 C 228.691406 289.316406 228.183594 288.585938 227.734375 287.824219 C 222.097656 278.089844 215.828125 268.816406 206.855469 261.84375 C 204.398438 259.933594 201.117188 259.109375 198.242188 257.734375 C 196.925781 257.109375 195.347656 256.632812 194.460938 255.589844 C 192.519531 253.304688 190.25 252.253906 187.324219 252.398438 C 179.683594 252.769531 171.988281 252.695312 164.429688 253.664062 C 160.148438 254.214844 156.0625 256.417969 151.945312 258.015625 C 150.777344 258.46875 149.785156 259.398438 148.714844 260.109375 C 148.375 259.539062 148.035156 258.976562 147.703125 258.414062 C 148.523438 257.347656 149.125 255.9375 150.191406 255.292969 C 156.617188 251.414062 163.523438 249.226562 171.144531 249.6875 C 174.460938 249.886719 177.785156 249.996094 181.109375 249.996094 C 182.453125 250.003906 183.800781 249.597656 185.785156 249.277344 C 184.796875 248.257812 184.347656 247.644531 183.757812 247.226562 C 180.507812 244.875 177.242188 242.550781 173.945312 240.261719 C 172.535156 239.28125 171.21875 239.105469 170.089844 240.8125 C 168.328125 243.46875 166.050781 243.246094 163.199219 242.492188 C 154.582031 240.171875 145.933594 237.761719 137.152344 236.316406 C 131.144531 235.324219 124.953125 235.792969 120.1875 240.941406 C 117.339844 244.015625 116.621094 247.28125 117.554688 251.226562 C 118.109375 253.566406 118.398438 255.972656 118.601562 258.371094 C 119.035156 263.574219 117.445312 267.835938 112.882812 270.875 C 110.996094 272.132812 109.386719 273.90625 107.894531 275.652344 C 102.800781 281.59375 102.5625 288.703125 104.316406 295.695312 C 105.59375 300.808594 108.21875 305.585938 110.277344 310.496094 C 111.324219 312.992188 112.570312 315.410156 113.511719 317.941406 C 115.597656 323.523438 117.34375 329.242188 119.59375 334.757812 C 123.609375 344.574219 131.496094 350.046875 141.292969 352.976562 C 148.128906 355.011719 155.070312 355.628906 162.152344 353.765625 C 170.042969 351.691406 175.070312 346.238281 179.355469 339.835938 C 185.226562 331.070312 186.707031 321.496094 184.53125 311.210938 C 184.246094 309.855469 184.941406 307.023438 185.265625 307.011719 C 187.742188 306.921875 187.472656 309.222656 187.613281 310.75 C 188.476562 320.339844 188.714844 329.9375 185.226562 339.121094 C 184.167969 341.894531 182.285156 344.351562 180.671875 346.882812 C 179.851562 348.183594 178.800781 349.332031 177.386719 351.148438 C 183.8125 350.835938 189.410156 350.578125 195.585938 350.285156 C 194.269531 347.921875 193.09375 345.820312 191.917969 343.714844 C 192.226562 343.433594 192.535156 343.164062 192.839844 342.890625 C 194.117188 343.332031 195.46875 343.617188 196.65625 344.230469 C 199.257812 345.570312 201.769531 347.078125 204.320312 348.507812 C 207.960938 350.542969 211.167969 352.949219 213.515625 356.585938 C 214.347656 357.871094 216.371094 358.675781 218.007812 359.128906 C 227.199219 361.628906 236.433594 363.238281 246.027344 361.019531 C 257.523438 358.367188 266.132812 352.136719 271.703125 341.6875 C 272.636719 339.925781 273.875 338.324219 274.972656 336.648438 C 275.507812 335.5625 276.042969 334.46875 276.578125 333.382812 C 277.804688 328.949219 278.820312 324.4375 280.296875 320.085938 C 285.03125 306.164062 289.671875 292.183594 294.855469 278.417969 C 299.6875 265.597656 300.640625 252.34375 300.410156 238.914062 C 300.296875 232.117188 297.515625 225.964844 294.042969 220.160156 Z M 294.042969 220.160156 "/>
<path style=" stroke:none;fill-rule:evenodd;fill-opacity:1;" d="M 265.789062 173.269531 C 268.410156 170.921875 270.425781 167.636719 271.964844 164.414062 C 273.953125 160.261719 275.566406 155.839844 276.601562 151.367188 C 277.136719 149.039062 276.15625 146.324219 275.71875 143.8125 C 275.5 142.515625 274.972656 141.285156 274.386719 139.375 C 279.441406 141.164062 281.164062 138.25 282.539062 135.082031 C 287.15625 124.429688 291.800781 113.785156 296.191406 103.03125 C 297.886719 98.878906 297.777344 94.808594 294.902344 90.710938 C 293.050781 88.070312 292.523438 84.488281 291.152344 80.617188 C 294.03125 81.457031 295.890625 82.296875 297.796875 82.433594 C 298.867188 82.511719 300.59375 81.695312 301.046875 80.792969 C 305.972656 71.03125 309.625 60.78125 312 50.089844 C 313.339844 44.027344 312.464844 38.492188 308.199219 33.742188 C 306.027344 32.671875 303.851562 31.597656 301.675781 30.53125 C 299.507812 30.730469 297.3125 30.769531 295.171875 31.160156 C 289.800781 32.136719 286.757812 36.039062 284.242188 40.414062 C 278.875 49.726562 275.609375 59.722656 274.707031 70.464844 C 274.636719 71.269531 274.539062 72.074219 274.550781 72.878906 C 274.640625 78.214844 274.6875 77.949219 279.960938 78.695312 C 282.546875 79.058594 285.003906 80.523438 287.433594 81.6875 C 288.046875 81.976562 288.324219 82.988281 288.75 83.671875 C 288.589844 83.902344 288.421875 84.128906 288.257812 84.359375 C 285.257812 83.5625 282.253906 82.773438 279.25 81.976562 C 279.144531 82.242188 279.039062 82.507812 278.929688 82.78125 C 280.691406 83.511719 282.519531 84.117188 284.195312 85.007812 C 286.757812 86.371094 289.289062 87.816406 291.667969 89.46875 C 292.378906 89.964844 292.535156 91.285156 292.949219 92.226562 C 291.960938 92.125 290.804688 92.324219 290.023438 91.875 C 286.449219 89.820312 283.078125 87.386719 279.441406 85.453125 C 274.300781 82.726562 269.921875 84.164062 266.921875 89.214844 C 262.769531 96.214844 261.363281 104.066406 260.085938 111.9375 C 259.570312 115.117188 259.140625 118.347656 259.078125 121.5625 C 259.050781 122.761719 259.90625 124.359375 260.867188 125.117188 C 262.164062 126.140625 263.925781 126.632812 265.546875 127.179688 C 269.019531 128.339844 270.699219 131.019531 271.601562 134.878906 C 270.609375 134.523438 269.550781 134.289062 268.628906 133.800781 C 265.4375 132.085938 262.335938 130.183594 259.097656 128.566406 C 258.027344 128.027344 256.640625 128.125 254.996094 127.871094 C 258.84375 130.257812 262.316406 132.015625 265.316406 134.367188 C 268.253906 136.667969 271.820312 138.796875 272.09375 144.359375 C 269.605469 142.816406 267.828125 141.644531 265.988281 140.59375 C 263.214844 139.007812 260.503906 137.234375 257.546875 136.121094 C 256.492188 135.722656 254.082031 136.597656 253.511719 137.597656 C 248 147.214844 245.457031 157.441406 249.199219 168.324219 C 251.578125 175.230469 260.5625 177.957031 265.789062 173.269531 Z M 265.789062 173.269531 "/>
<path style=" stroke:none;fill-rule:evenodd;fill-opacity:1;" d="M 94.128906 256.796875 C 88.792969 253.628906 83.445312 250.800781 77.476562 249.269531 C 75.320312 248.710938 74.542969 247.597656 74.214844 245.570312 C 73.84375 243.273438 73.152344 241.039062 72.390625 237.925781 C 71.140625 239.535156 70.574219 240.277344 69.867188 241.199219 C 67.253906 239.589844 63.238281 237.058594 62.59375 234.28125 C 62.082031 232.125 61.851562 229.546875 58.421875 231.242188 C 58.078125 231.417969 60.101562 230.875 59.816406 230.40625 C 58.929688 228.949219 58.050781 227.433594 57.515625 225.832031 C 54.078125 215.542969 46.753906 209.519531 36.542969 206.886719 C 31.066406 205.476562 25.472656 204.996094 19.785156 206.144531 C 14.886719 207.125 10.945312 209.355469 8.070312 213.464844 C 7.734375 213.941406 7.179688 214.25 6.730469 214.640625 C 6.195312 215.726562 5.660156 216.820312 5.125 217.90625 C 2.632812 230.046875 9.308594 237.773438 17.59375 245.125 C 26.339844 252.871094 37.507812 255.539062 47.507812 260.648438 C 49.554688 261.699219 51.664062 262.710938 53.503906 264.0625 C 56.292969 266.121094 56.464844 266.101562 57.582031 262.667969 C 58.605469 259.539062 59.816406 256.46875 60.941406 253.375 C 61.253906 253.375 61.5625 253.375 61.871094 253.375 C 62.132812 254.296875 62.671875 255.238281 62.617188 256.144531 C 62.316406 260.820312 64.109375 264.203125 68.074219 266.792969 C 72.28125 269.539062 76.34375 272.546875 80.214844 275.746094 C 82.746094 277.847656 85.023438 280.332031 87.058594 282.914062 C 90.414062 287.191406 94.332031 287.003906 97.539062 282.605469 C 100.375 278.699219 101.347656 274.371094 101.226562 269.832031 C 101.082031 264.425781 99.480469 259.972656 94.128906 256.796875 Z M 94.128906 256.796875 "/>
<path style=" stroke:none;fill-rule:evenodd;fill-opacity:1;" d="M 193.898438 125.980469 C 194.464844 128.113281 195.953125 128.953125 198.304688 128.574219 C 199.84375 128.332031 201.476562 128.726562 203.070312 128.835938 C 203.070312 129.339844 203.078125 129.847656 203.082031 130.347656 C 201.691406 130.699219 200.308594 131.101562 198.902344 131.394531 C 194.59375 132.296875 193.207031 133.402344 192.824219 137.28125 C 191.9375 146.238281 191.945312 155.050781 197.378906 162.945312 C 201.5 168.941406 205.867188 169.5 210.964844 164.25 C 217.1875 157.828125 220.585938 150.085938 220.238281 141.101562 C 220.066406 136.664062 217.925781 132.957031 213.347656 131.296875 C 212.875 131.128906 212.339844 130.949219 212.015625 130.597656 C 211.546875 130.082031 211.242188 129.40625 210.863281 128.800781 C 211.476562 128.683594 212.074219 128.503906 212.6875 128.457031 C 213.175781 128.414062 213.671875 128.53125 214.203125 128.582031 C 213.574219 125.875 214.273438 125.164062 216.769531 125.921875 C 218.496094 126.449219 220.210938 127.054688 221.90625 127.703125 C 223.847656 128.4375 225.257812 127.824219 225.492188 125.8125 C 226.78125 115.011719 228.519531 104.210938 228.878906 93.375 C 229.039062 88.546875 228.8125 83.769531 229.625 78.929688 C 231.128906 69.980469 232.371094 60.980469 233.363281 51.964844 C 234.203125 44.320312 234.214844 36.566406 232.121094 29.113281 C 229.902344 21.175781 219.109375 12.519531 209.449219 17.648438 C 205.648438 19.660156 203.4375 22.894531 202.789062 26.890625 C 201.480469 34.941406 200.65625 43.070312 199.539062 51.152344 C 198.5 58.621094 197.460938 66.089844 196.160156 73.515625 C 195.667969 76.300781 196.871094 77.253906 199.179688 77.613281 C 202.238281 78.097656 205.628906 77.835938 208.3125 79.089844 C 212.382812 81.011719 216.003906 83.914062 219.730469 86.527344 C 220.210938 86.867188 220.5 88.0625 220.285156 88.660156 C 220.082031 89.234375 219.164062 89.847656 218.5 89.917969 C 217.441406 90.039062 216.324219 83.617188 215.230469 83.492188 C 209.835938 82.902344 204.449219 82.222656 199.039062 81.777344 C 197.679688 81.664062 195.984375 81.605469 195.597656 83.808594 C 194.015625 93.023438 190.941406 108.148438 192.242188 117.695312 C 192.628906 120.484375 193.171875 123.261719 193.898438 125.980469 Z M 193.898438 125.980469 "/>
<path style=" stroke:none;fill-rule:evenodd;fill-opacity:1;" d="M 129.363281 58.03125 C 133.167969 61.546875 132.441406 66.089844 132.222656 70.492188 C 131.902344 76.929688 131.496094 83.363281 131.121094 89.792969 C 130.882812 93.847656 132.980469 95.582031 137.101562 94.875 C 139.109375 94.527344 141.15625 94.40625 143.191406 94.183594 C 143.300781 94.570312 143.414062 94.953125 143.523438 95.335938 C 140.707031 96.992188 137.894531 98.652344 135.078125 100.3125 C 135.261719 100.644531 135.449219 100.980469 135.632812 101.3125 C 137.746094 100.496094 139.851562 99.683594 141.96875 98.871094 C 142.203125 99.242188 142.4375 99.617188 142.679688 99.992188 C 141.097656 101.332031 139.417969 102.566406 137.988281 104.046875 C 137.015625 105.046875 135.769531 106.363281 135.730469 107.566406 C 135.464844 116.277344 135.8125 124.925781 139.589844 133.066406 C 140.761719 135.585938 142.023438 136.40625 144.9375 135.460938 C 148.152344 134.421875 151.644531 134.089844 155.042969 133.839844 C 156.539062 133.734375 158.101562 134.601562 159.574219 135.015625 C 159.414062 135.875 159.433594 136.207031 159.34375 136.238281 C 154.929688 137.839844 152.09375 141.636719 148.324219 144.117188 C 145.21875 146.164062 143.582031 149.15625 144.929688 152.582031 C 147.058594 158 149.265625 163.476562 152.203125 168.484375 C 155.769531 174.558594 162.03125 176.050781 167.222656 172.960938 C 170.476562 171.03125 171.773438 167.894531 171.539062 164.507812 C 171.046875 157.382812 170.167969 150.265625 169.152344 143.191406 C 168.835938 141 167.554688 138.957031 166.714844 136.847656 C 166.949219 136.714844 167.183594 136.574219 167.417969 136.4375 C 165.988281 135.738281 164.5 135.121094 163.160156 134.285156 C 162.5625 133.917969 162.246094 133.105469 161.804688 132.492188 C 162.398438 132.078125 163.023438 131.261719 163.585938 131.304688 C 166.175781 131.503906 166.480469 129.878906 166.230469 128.042969 C 164.851562 118.035156 163.378906 108.042969 161.945312 98.046875 C 161.621094 95.773438 160.03125 95.5625 158.164062 95.5625 C 155.21875 95.558594 152.140625 96.171875 148.804688 93.851562 C 150.730469 92.644531 152.234375 91.691406 153.984375 90.589844 C 151.394531 89.949219 148.980469 89.347656 146.199219 88.664062 C 148.824219 86.4375 148.824219 86.4375 160.660156 88.164062 C 160.617188 85.839844 160.570312 83.59375 160.535156 81.347656 C 160.484375 78.65625 160.277344 75.953125 160.417969 73.269531 C 161.066406 61.246094 159.519531 49.410156 156.644531 37.84375 C 155.03125 31.371094 150.558594 26.476562 143.820312 24.582031 C 137.992188 22.953125 131.5 26.578125 129.5625 32.386719 C 126.898438 40.367188 127.457031 48.503906 128.820312 56.628906 C 128.90625 57.121094 129.03125 57.722656 129.363281 58.03125 Z M 129.363281 58.03125 "/>
<path style=" stroke:none;fill-rule:evenodd;fill-opacity:1;" d="M 366.585938 93.890625 C 361.183594 91.898438 354.941406 94.078125 351.902344 99.246094 C 348.375 105.257812 345.152344 111.441406 341.542969 117.398438 C 339.90625 120.105469 337.957031 122.78125 335.625 124.898438 C 329.40625 130.542969 323.355469 136.285156 319.003906 143.558594 C 317.777344 145.609375 317.03125 147.929688 315.902344 150.050781 C 315.167969 151.433594 314.398438 153.003906 313.203125 153.894531 C 306.699219 158.753906 301.882812 165.050781 298.015625 172.023438 C 295.152344 177.191406 292.039062 182.363281 291.605469 188.550781 C 291.316406 192.632812 293.230469 196.78125 296.308594 198.273438 C 300.203125 200.164062 303.449219 199.878906 306.574219 196.078125 C 312.566406 188.777344 318.109375 181.109375 323.789062 173.558594 C 325.589844 171.160156 324.402344 169.265625 322.558594 167.492188 C 321.480469 166.464844 320.507812 165.304688 319.640625 164.09375 C 319.402344 163.757812 319.574219 162.929688 319.839844 162.511719 C 319.992188 162.277344 320.847656 162.234375 321.1875 162.441406 C 322.460938 163.222656 323.792969 164 324.855469 165.03125 C 327.433594 167.542969 330.265625 167.550781 333.199219 166.035156 C 341.757812 161.605469 347.464844 154.695312 350.605469 145.613281 C 351.402344 143.328125 352.574219 141.097656 352.890625 138.75 C 353.148438 136.804688 352.378906 134.722656 352.101562 132.707031 C 351.976562 131.753906 351.941406 130.792969 351.875 129.839844 C 352.660156 130.308594 353.679688 130.609375 354.191406 131.285156 C 356.367188 134.121094 357.011719 134.089844 358.792969 130.785156 C 356.484375 129.351562 354.273438 128.15625 352.308594 126.648438 C 351.550781 126.070312 351.34375 124.753906 350.890625 123.78125 C 352 123.847656 353.179688 123.695312 354.195312 124.035156 C 355.707031 124.542969 357.070312 125.503906 358.570312 126.074219 C 361.890625 127.332031 363.753906 126.796875 365.378906 123.699219 C 368.332031 118.078125 371.199219 112.386719 371.953125 105.917969 C 372.644531 99.996094 370.601562 95.375 366.585938 93.890625 Z M 366.585938 93.890625 "/>
<path style=" stroke:none;fill-rule:evenodd;fill-opacity:1;" d="M 152.796875 236.171875 C 155.203125 236.847656 157.507812 237.9375 159.9375 238.433594 C 162.21875 238.910156 164.613281 238.976562 166.945312 238.929688 C 167.523438 238.914062 168.066406 237.753906 168.628906 237.121094 C 168.050781 236.613281 167.546875 235.9375 166.871094 235.648438 C 166.175781 235.347656 165.246094 235.609375 164.546875 235.3125 C 162.125 234.296875 159.746094 233.160156 157.375 232.039062 C 155.238281 231.023438 153.222656 229.496094 150.980469 229.035156 C 147.867188 228.375 144.867188 227.867188 142.578125 225.414062 C 141.265625 224.011719 139.84375 223.5625 138.609375 225.460938 C 137.433594 227.253906 136.726562 229.253906 138.828125 230.816406 C 140.179688 231.820312 141.867188 232.378906 143.40625 233.132812 C 143.351562 233.339844 143.292969 233.546875 143.230469 233.753906 C 146.425781 234.558594 149.632812 235.285156 152.796875 236.171875 Z M 152.796875 236.171875 "/>
</g>
</svg>
